# xmcd CD database file
#
# Track frame offsets:
#	150
#	14515
#	26208
#	39049
#	53572
#	66798
#	81798
#	92018
#	105725
#	119986
#	133263
#	146200
#	160991
#	175213
#	188576
#	203666
#	218181
#	231860
#	245577
#
# Disc length: 3456 seconds
#
# Revision: 4
# Processed by: cddbd v1.5.2PL0 Copyright (c) Steve Scherf et al.
# Submitted via: CDex 1.51
#
DISCID=120d7e13
DTITLE=Billie Holiday - Billy Holiday  [CD 08-10]
DYEAR=1900
DGENRE=Jazz
TTITLE0=The Same Old Story
TTITLE1=Practice Makes Perfect
TTITLE2=St. Louis Blues
TTITLE3=Loveless Love
TTITLE4=Let's Do It
TTITLE5=Georgia On My Mind
TTITLE6=Romance In The Dark
TTITLE7=All Of Me
TTITLE8=I'm In A Low-Down Groove
TTITLE9=God Bless The Child
TTITLE10=Am I Blue ¿
TTITLE11=Solitude
TTITLE12=Jim
TTITLE13=I Cover The Waterfront
TTITLE14=Love Me Or Leave Me
TTITLE15=Gloomy Sunday
TTITLE16=Wherever You Are
TTITLE17=Mandy Is Two
TTITLE18=It's A Sin To Tell A Lie
EXTD=Volume 8 of a 10-CD set.
EXTT0=
EXTT1=
EXTT2=
EXTT3=
EXTT4=
EXTT5=
EXTT6=
EXTT7=
EXTT8=
EXTT9=
EXTT10=
EXTT11=
EXTT12=
EXTT13=
EXTT14=
EXTT15=
EXTT16=
EXTT17=
EXTT18=
PLAYORDER=
